<svg version="1.0" preserveAspectRatio="xMidYMid meet" viewBox="28.940624999999997 6.449999845200001 328.5 299.99999280000003" zoomAndPan="magnify" xmlns:xlink="http://www.w3.org/1999/xlink" xmlns="http://www.w3.org/2000/svg" style="max-height: 500px" width="328.5" height="299.99999280000003"><defs><g/><clipPath id="095ddc2fee"><path clip-rule="nonzero" d="M 270 124 L 331.957031 124 L 331.957031 187 L 270 187 Z M 270 124"/></clipPath><clipPath id="a7c3cec237"><path clip-rule="nonzero" d="M 0.160156 0.078125 L 22 0.078125 L 22 22 L 0.160156 22 Z M 0.160156 0.078125"/></clipPath><clipPath id="9fc9b5640d"><path clip-rule="nonzero" d="M 23 0.078125 L 36 0.078125 L 36 22 L 23 22 Z M 23 0.078125"/></clipPath><clipPath id="29abfe9270"><path clip-rule="nonzero" d="M 38 0.078125 L 56 0.078125 L 56 22 L 38 22 Z M 38 0.078125"/></clipPath><clipPath id="2ed91cd396"><path clip-rule="nonzero" d="M 58 0.078125 L 86 0.078125 L 86 22 L 58 22 Z M 58 0.078125"/></clipPath><clipPath id="2c0d270613"><path clip-rule="nonzero" d="M 88 0.078125 L 106 0.078125 L 106 22 L 88 22 Z M 88 0.078125"/></clipPath><clipPath id="d8adbc229e"><path clip-rule="nonzero" d="M 110 0.078125 L 115 0.078125 L 115 22 L 110 22 Z M 110 0.078125"/></clipPath><clipPath id="a0e09ff2b6"><rect height="27" y="0" width="118" x="0"/></clipPath><clipPath id="a10a800387"><rect height="14" y="0" width="81" x="0"/></clipPath></defs><path fill-rule="nonzero" fill-opacity="1" d="M 246.730469 174.125 C 248.957031 169.226562 250.292969 163.4375 250.738281 158.09375 C 251.628906 144.730469 246.730469 131.371094 237.378906 122.019531 C 219.121094 103.757812 189.726562 103.757812 171.46875 122.019531 C 153.207031 140.277344 153.207031 169.671875 171.46875 187.929688 C 175.03125 191.492188 179.039062 194.609375 183.492188 196.835938 C 190.171875 199.953125 197.296875 201.734375 204.867188 201.734375 C 205.757812 201.734375 206.648438 201.734375 207.539062 201.734375 C 213.773438 201.289062 220.011719 199.507812 225.800781 196.835938 C 230.253906 194.609375 234.261719 191.492188 237.824219 187.929688 C 241.386719 183.921875 244.503906 179.023438 246.730469 174.125 Z M 203.976562 127.363281 C 211.546875 127.363281 217.785156 133.597656 217.785156 141.167969 C 217.785156 148.738281 211.546875 154.972656 203.976562 154.972656 C 196.40625 154.972656 190.171875 148.738281 190.171875 141.167969 C 190.171875 133.597656 196.40625 127.363281 203.976562 127.363281 Z M 228.472656 173.679688 C 225.800781 176.351562 222.683594 178.578125 219.566406 180.359375 C 215.109375 182.585938 210.65625 183.921875 206.203125 183.921875 C 205.3125 183.921875 204.867188 183.921875 203.976562 183.921875 C 198.632812 183.921875 193.289062 182.585938 188.390625 180.359375 C 185.273438 178.578125 182.15625 176.796875 179.484375 173.679688 C 179.484375 163.882812 187.5 155.863281 197.742188 155.863281 L 203.976562 168.335938 L 210.210938 155.863281 C 220.457031 155.863281 228.472656 163.882812 228.472656 173.679688 Z M 228.472656 173.679688" fill="#663399" data-darkreader-inline-fill="" style="--darkreader-inline-fill: var(--darkreader-background-663399, #5e3586);"/><path fill-rule="nonzero" fill-opacity="1" d="M 258.753906 224.894531 L 237.378906 196.390625 C 235.597656 197.726562 233.816406 199.0625 232.035156 200.398438 L 252.964844 228.902344 C 252.074219 229.792969 251.183594 230.683594 249.847656 231.574219 C 235.152344 246.269531 235.152344 269.875 249.847656 284.570312 C 252.519531 287.242188 256.082031 289.914062 259.199219 291.695312 C 264.542969 294.367188 270.335938 295.703125 276.125 295.703125 C 277.015625 295.703125 277.460938 295.703125 278.351562 295.703125 C 283.25 295.257812 288.148438 293.921875 293.046875 291.695312 C 296.609375 289.914062 299.726562 287.6875 302.398438 285.015625 C 302.398438 285.015625 302.84375 285.015625 302.84375 284.570312 C 309.078125 277.890625 313.089844 269.429688 313.535156 260.523438 C 314.425781 249.832031 310.414062 239.144531 302.84375 231.574219 C 291.265625 219.105469 273.007812 216.878906 258.753906 224.894531 Z M 277.015625 234.691406 C 282.359375 234.691406 286.8125 239.144531 286.8125 244.488281 C 286.8125 249.832031 282.359375 254.289062 277.015625 254.289062 C 271.671875 254.289062 267.21875 249.832031 267.21875 244.488281 C 266.773438 239.144531 271.226562 234.691406 277.015625 234.691406 Z M 298.390625 271.65625 C 296.164062 273.882812 293.492188 276.109375 290.375 277.445312 C 286.8125 279.226562 282.804688 280.5625 278.351562 280.5625 C 277.90625 280.5625 277.015625 280.5625 276.570312 280.5625 C 271.671875 280.5625 267.21875 279.671875 262.761719 277.445312 C 260.089844 276.109375 257.417969 274.328125 254.746094 271.65625 C 254.746094 262.75 261.871094 256.070312 270.78125 256.070312 L 276.570312 267.203125 L 282.359375 256.070312 C 291.265625 256.070312 298.390625 263.195312 298.390625 271.65625 Z M 298.390625 271.65625" fill="#663399" data-darkreader-inline-fill="" style="--darkreader-inline-fill: var(--darkreader-background-663399, #5e3586);"/><path fill-rule="nonzero" fill-opacity="1" d="M 151.425781 213.761719 C 134.503906 213.761719 120.699219 227.566406 120.699219 244.488281 C 120.699219 261.414062 134.503906 275.21875 151.425781 275.21875 C 168.351562 275.21875 182.15625 261.414062 182.15625 244.488281 C 182.15625 227.566406 168.351562 213.761719 151.425781 213.761719 Z M 151.425781 213.761719" fill="#663399" data-darkreader-inline-fill="" style="--darkreader-inline-fill: var(--darkreader-background-663399, #5e3586);"/><g clip-path="url(#095ddc2fee)"><path fill-rule="nonzero" fill-opacity="1" d="M 301.0625 124.691406 C 284.140625 124.691406 270.335938 138.496094 270.335938 155.417969 C 270.335938 172.34375 284.140625 186.148438 301.0625 186.148438 C 317.988281 186.148438 331.792969 172.34375 331.792969 155.417969 C 331.792969 138.496094 317.988281 124.691406 301.0625 124.691406 Z M 301.0625 124.691406" fill="#663399" data-darkreader-inline-fill="" style="--darkreader-inline-fill: var(--darkreader-background-663399, #5e3586);"/></g><path fill-rule="nonzero" fill-opacity="1" d="M 157.214844 92.625 C 174.140625 92.625 187.945312 78.820312 187.945312 61.898438 C 187.945312 44.972656 174.140625 31.167969 157.214844 31.167969 C 140.292969 31.167969 126.488281 44.972656 126.488281 61.898438 C 126.488281 78.820312 140.292969 92.625 157.214844 92.625 Z M 157.214844 92.625" fill="#663399" data-darkreader-inline-fill="" style="--darkreader-inline-fill: var(--darkreader-background-663399, #5e3586);"/><path fill-rule="nonzero" fill-opacity="1" d="M 237.378906 113.113281 L 255.636719 89.0625 C 256.972656 89.953125 258.753906 90.84375 260.089844 91.734375 C 265.4375 94.40625 271.226562 95.742188 277.015625 95.742188 C 277.90625 95.742188 278.351562 95.742188 279.242188 95.742188 C 284.140625 95.296875 289.039062 93.960938 293.9375 91.734375 C 297.5 89.953125 300.617188 87.726562 303.289062 85.054688 C 303.289062 85.054688 303.734375 85.054688 303.734375 84.609375 C 309.96875 77.929688 313.980469 69.46875 314.425781 60.5625 C 315.316406 49.871094 311.304688 39.183594 303.734375 31.613281 C 289.039062 16.917969 265.4375 16.917969 250.738281 31.613281 C 236.042969 46.308594 236.042969 69.914062 250.738281 84.609375 L 232.035156 109.105469 C 233.816406 110.441406 235.597656 111.777344 237.378906 113.113281 Z M 277.015625 35.175781 C 282.359375 35.175781 286.8125 39.628906 286.8125 44.972656 C 286.8125 50.316406 282.359375 54.769531 277.015625 54.769531 C 271.671875 54.769531 267.21875 50.316406 267.21875 44.972656 C 267.21875 39.628906 271.226562 35.175781 277.015625 35.175781 Z M 271.226562 56.996094 L 277.015625 68.132812 L 282.804688 56.996094 C 291.710938 56.996094 298.835938 64.125 298.835938 72.585938 C 296.609375 74.8125 293.9375 77.039062 290.820312 78.375 C 287.257812 80.15625 283.25 81.492188 278.796875 81.492188 C 278.351562 81.492188 277.460938 81.492188 277.015625 81.492188 C 272.117188 81.492188 267.664062 80.601562 263.207031 78.375 C 260.535156 77.039062 257.863281 75.257812 255.191406 72.585938 C 255.191406 63.679688 262.316406 56.996094 271.226562 56.996094 Z M 271.226562 56.996094" fill="#663399" data-darkreader-inline-fill="" style="--darkreader-inline-fill: var(--darkreader-background-663399, #5e3586);"/><path fill-rule="nonzero" fill-opacity="1" d="M 150.980469 158.984375 C 150.980469 156.757812 150.980469 154.527344 150.980469 152.300781 L 121.589844 152.300781 C 121.144531 142.949219 117.578125 133.597656 110.898438 126.917969 C 96.203125 112.222656 72.601562 112.222656 57.902344 126.917969 C 43.207031 141.613281 43.207031 165.21875 57.902344 179.914062 C 60.574219 182.585938 64.136719 185.257812 67.253906 187.039062 C 72.601562 189.710938 78.390625 191.046875 84.179688 191.046875 C 85.070312 191.046875 85.515625 191.046875 86.40625 191.046875 C 91.304688 190.601562 96.203125 189.265625 101.101562 187.039062 C 104.664062 185.257812 107.78125 183.03125 110.453125 180.359375 C 110.453125 180.359375 110.898438 180.359375 110.898438 179.914062 C 116.6875 174.125 120.253906 167 121.144531 159.429688 L 150.980469 159.429688 Z M 84.179688 130.035156 C 89.523438 130.035156 93.976562 134.488281 93.976562 139.832031 C 93.976562 145.175781 89.523438 149.628906 84.179688 149.628906 C 78.835938 149.628906 74.382812 145.175781 74.382812 139.832031 C 74.382812 134.488281 78.835938 130.035156 84.179688 130.035156 Z M 105.554688 167.445312 C 103.328125 169.671875 100.65625 171.898438 97.539062 173.234375 C 93.976562 175.015625 89.96875 176.351562 85.515625 176.351562 C 85.070312 176.351562 84.179688 176.351562 83.734375 176.351562 C 78.835938 176.351562 74.382812 175.460938 69.925781 173.234375 C 67.253906 171.898438 64.582031 170.117188 61.910156 167.445312 C 61.910156 158.539062 69.035156 151.855469 77.945312 151.855469 L 84.179688 162.546875 L 89.96875 151.410156 C 98.429688 151.410156 105.554688 158.539062 105.554688 167.445312 C 105.554688 167 105.554688 167.445312 105.554688 167.445312 Z M 105.554688 167.445312" fill="#663399" data-darkreader-inline-fill="" style="--darkreader-inline-fill: var(--darkreader-background-663399, #5e3586);"/><g transform="matrix(1, 0, 0, 1, 128, 316)"><g clip-path="url(#a0e09ff2b6)"><g clip-path="url(#a7c3cec237)"><g fill-opacity="1" fill="#000000" data-darkreader-inline-fill="" style="--darkreader-inline-fill: var(--darkreader-text-000000, #f2f0ed);"><g transform="translate(0.398912, 21.105734)"><g><path d="M 15.890625 0 L 14.46875 -3.875 L 6.328125 -3.875 L 4.921875 0 L 0.265625 0 L 8.25 -20.40625 L 12.421875 -20.40625 L 20.671875 0 Z M 10.375 -15.015625 L 7.71875 -7.71875 L 13.0625 -7.71875 Z M 10.375 -15.015625"/></g></g></g></g><g clip-path="url(#9fc9b5640d)"><g fill-opacity="1" fill="#000000" data-darkreader-inline-fill="" style="--darkreader-inline-fill: var(--darkreader-text-000000, #f2f0ed);"><g transform="translate(21.331711, 21.105734)"><g><path d="M 6.765625 -4.109375 L 14.578125 -4.109375 L 14.578125 0 L 2.328125 0 L 2.328125 -20.40625 L 6.765625 -20.40625 Z M 6.765625 -4.109375"/></g></g></g></g><g clip-path="url(#29abfe9270)"><g fill-opacity="1" fill="#000000" data-darkreader-inline-fill="" style="--darkreader-inline-fill: var(--darkreader-text-000000, #f2f0ed);"><g transform="translate(36.550264, 21.105734)"><g><path d="M 10.546875 0.4375 C 8.941406 0.4375 7.503906 0.09375 6.234375 -0.59375 C 4.972656 -1.28125 3.972656 -2.234375 3.234375 -3.453125 C 2.492188 -4.671875 2.125 -6.078125 2.125 -7.671875 L 2.125 -20.40625 L 6.5625 -20.40625 L 6.5625 -7.875 C 6.5625 -6.613281 6.9375 -5.609375 7.6875 -4.859375 C 8.4375 -4.109375 9.390625 -3.734375 10.546875 -3.734375 C 11.734375 -3.734375 12.703125 -4.109375 13.453125 -4.859375 C 14.203125 -5.609375 14.578125 -6.613281 14.578125 -7.875 L 14.578125 -20.40625 L 18.984375 -20.40625 L 18.984375 -7.671875 C 18.984375 -6.078125 18.617188 -4.671875 17.890625 -3.453125 C 17.160156 -2.234375 16.15625 -1.28125 14.875 -0.59375 C 13.601562 0.09375 12.160156 0.4375 10.546875 0.4375 Z M 10.546875 0.4375"/></g></g></g></g><g clip-path="url(#2ed91cd396)"><g fill-opacity="1" fill="#000000" data-darkreader-inline-fill="" style="--darkreader-inline-fill: var(--darkreader-background-000000, #0d0d0d);"><g transform="translate(57.657997, 21.105734)"><g><path d="M 27.34375 0 L 22.859375 0 L 20.84375 -13.328125 L 14.75 -0.03125 L 13.671875 -0.03125 L 7.578125 -13.328125 L 5.5625 0 L 1.046875 0 L 4.25 -20.40625 L 8.6875 -20.40625 L 14.203125 -7.90625 L 19.734375 -20.40625 L 24.171875 -20.40625 Z M 27.34375 0"/></g></g></g></g><g clip-path="url(#2c0d270613)"><g fill-opacity="1" fill="#000000" data-darkreader-inline-fill="" style="--darkreader-inline-fill: var(--darkreader-text-000000, #f2f0ed);"><g transform="translate(86.083461, 21.105734)"><g><path d="M 15.28125 -20.40625 L 19.59375 -20.40625 L 19.59375 0 L 15.921875 0 L 6.671875 -12.734375 L 6.671875 0 L 2.328125 0 L 2.328125 -20.40625 L 6.328125 -20.40625 L 15.28125 -7.953125 Z M 15.28125 -20.40625"/></g></g></g></g><g clip-path="url(#d8adbc229e)"><g fill-opacity="1" fill="#000000" data-darkreader-inline-fill="" style="--darkreader-inline-fill: var(--darkreader-text-000000, #f2f0ed);"><g transform="translate(108.007516, 21.105734)"><g><path d="M 2.328125 0 L 2.328125 -20.40625 L 6.765625 -20.40625 L 6.765625 0 Z M 2.328125 0"/></g></g></g></g></g></g><g transform="matrix(1, 0, 0, 1, 146, 347)"><g clip-path="url(#a10a800387)"><g fill-opacity="1" fill="#000000" data-darkreader-inline-fill="" style="--darkreader-inline-fill: var(--darkreader-text-000000, #f2f0ed);"><g transform="translate(1.02021, 10.770963)"><g><path d="M 5.34375 0.203125 C 4.65625 0.203125 4.019531 0.0820312 3.4375 -0.15625 C 2.851562 -0.40625 2.34375 -0.75 1.90625 -1.1875 C 1.46875 -1.632812 1.128906 -2.148438 0.890625 -2.734375 C 0.648438 -3.328125 0.53125 -3.96875 0.53125 -4.65625 C 0.53125 -5.34375 0.648438 -5.984375 0.890625 -6.578125 C 1.128906 -7.179688 1.46875 -7.703125 1.90625 -8.140625 C 2.34375 -8.578125 2.851562 -8.914062 3.4375 -9.15625 C 4.019531 -9.40625 4.65625 -9.53125 5.34375 -9.53125 C 6.101562 -9.53125 6.796875 -9.375 7.421875 -9.0625 C 8.054688 -8.75 8.585938 -8.3125 9.015625 -7.75 C 9.441406 -7.195312 9.722656 -6.550781 9.859375 -5.8125 L 7.84375 -5.8125 C 7.65625 -6.363281 7.335938 -6.800781 6.890625 -7.125 C 6.441406 -7.445312 5.925781 -7.609375 5.34375 -7.609375 C 4.820312 -7.609375 4.351562 -7.476562 3.9375 -7.21875 C 3.519531 -6.957031 3.1875 -6.601562 2.9375 -6.15625 C 2.695312 -5.707031 2.578125 -5.207031 2.578125 -4.65625 C 2.578125 -4.09375 2.695312 -3.59375 2.9375 -3.15625 C 3.1875 -2.71875 3.519531 -2.367188 3.9375 -2.109375 C 4.351562 -1.847656 4.820312 -1.71875 5.34375 -1.71875 C 5.957031 -1.71875 6.484375 -1.890625 6.921875 -2.234375 C 7.367188 -2.585938 7.675781 -3.0625 7.84375 -3.65625 L 9.890625 -3.65625 C 9.742188 -2.882812 9.457031 -2.207031 9.03125 -1.625 C 8.613281 -1.050781 8.085938 -0.601562 7.453125 -0.28125 C 6.816406 0.0390625 6.113281 0.203125 5.34375 0.203125 Z M 5.34375 0.203125"/></g></g></g><g fill-opacity="1" fill="#000000" data-darkreader-inline-fill="" style="--darkreader-inline-fill: var(--darkreader-text-000000, #f2f0ed);"><g transform="translate(13.06018, 10.770963)"><g><path d="M 5.484375 0.203125 C 4.773438 0.203125 4.117188 0.0820312 3.515625 -0.15625 C 2.910156 -0.40625 2.382812 -0.75 1.9375 -1.1875 C 1.488281 -1.632812 1.140625 -2.148438 0.890625 -2.734375 C 0.640625 -3.328125 0.515625 -3.972656 0.515625 -4.671875 C 0.515625 -5.359375 0.640625 -6 0.890625 -6.59375 C 1.140625 -7.1875 1.488281 -7.703125 1.9375 -8.140625 C 2.382812 -8.578125 2.910156 -8.914062 3.515625 -9.15625 C 4.117188 -9.40625 4.773438 -9.53125 5.484375 -9.53125 C 6.203125 -9.53125 6.863281 -9.40625 7.46875 -9.15625 C 8.070312 -8.914062 8.59375 -8.578125 9.03125 -8.140625 C 9.476562 -7.703125 9.828125 -7.1875 10.078125 -6.59375 C 10.328125 -6 10.453125 -5.359375 10.453125 -4.671875 C 10.453125 -3.972656 10.328125 -3.328125 10.078125 -2.734375 C 9.828125 -2.148438 9.476562 -1.632812 9.03125 -1.1875 C 8.59375 -0.75 8.070312 -0.40625 7.46875 -0.15625 C 6.863281 0.0820312 6.203125 0.203125 5.484375 0.203125 Z M 5.484375 -1.703125 C 6.046875 -1.703125 6.546875 -1.832031 6.984375 -2.09375 C 7.429688 -2.351562 7.78125 -2.703125 8.03125 -3.140625 C 8.28125 -3.585938 8.40625 -4.097656 8.40625 -4.671875 C 8.40625 -5.222656 8.28125 -5.722656 8.03125 -6.171875 C 7.78125 -6.617188 7.429688 -6.972656 6.984375 -7.234375 C 6.546875 -7.492188 6.046875 -7.625 5.484375 -7.625 C 4.941406 -7.625 4.445312 -7.492188 4 -7.234375 C 3.550781 -6.972656 3.195312 -6.617188 2.9375 -6.171875 C 2.6875 -5.722656 2.5625 -5.222656 2.5625 -4.671875 C 2.5625 -4.109375 2.6875 -3.601562 2.9375 -3.15625 C 3.195312 -2.707031 3.550781 -2.351562 4 -2.09375 C 4.445312 -1.832031 4.941406 -1.703125 5.484375 -1.703125 Z M 5.484375 -1.703125"/></g></g></g><g fill-opacity="1" fill="#000000" data-darkreader-inline-fill="" style="--darkreader-inline-fill: var(--darkreader-text-000000, #f2f0ed);"><g transform="translate(25.793448, 10.770963)"><g><path d="M 6.984375 -9.328125 L 8.953125 -9.328125 L 8.953125 0 L 7.28125 0 L 3.046875 -5.828125 L 3.046875 0 L 1.0625 0 L 1.0625 -9.328125 L 2.890625 -9.328125 L 6.984375 -3.640625 Z M 6.984375 -9.328125"/></g></g></g><g fill-opacity="1" fill="#000000" data-darkreader-inline-fill="" style="--darkreader-inline-fill: var(--darkreader-text-000000, #f2f0ed);"><g transform="translate(37.580108, 10.770963)"><g><path d="M 6.984375 -9.328125 L 8.953125 -9.328125 L 8.953125 0 L 7.28125 0 L 3.046875 -5.828125 L 3.046875 0 L 1.0625 0 L 1.0625 -9.328125 L 2.890625 -9.328125 L 6.984375 -3.640625 Z M 6.984375 -9.328125"/></g></g></g><g fill-opacity="1" fill="#000000" data-darkreader-inline-fill="" style="--darkreader-inline-fill: var(--darkreader-text-000000, #f2f0ed);"><g transform="translate(49.366769, 10.770963)"><g><path d="M 3.09375 -1.875 L 6.8125 -1.875 L 6.8125 0 L 1.0625 0 L 1.0625 -9.328125 L 6.65625 -9.328125 L 6.65625 -7.46875 L 3.09375 -7.46875 L 3.09375 -5.625 L 6.3125 -5.625 L 6.3125 -3.796875 L 3.09375 -3.796875 Z M 3.09375 -1.875"/></g></g></g><g fill-opacity="1" fill="#000000" data-darkreader-inline-fill="" style="--darkreader-inline-fill: var(--darkreader-text-000000, #f2f0ed);"><g transform="translate(58.58026, 10.770963)"><g><path d="M 5.34375 0.203125 C 4.65625 0.203125 4.019531 0.0820312 3.4375 -0.15625 C 2.851562 -0.40625 2.34375 -0.75 1.90625 -1.1875 C 1.46875 -1.632812 1.128906 -2.148438 0.890625 -2.734375 C 0.648438 -3.328125 0.53125 -3.96875 0.53125 -4.65625 C 0.53125 -5.34375 0.648438 -5.984375 0.890625 -6.578125 C 1.128906 -7.179688 1.46875 -7.703125 1.90625 -8.140625 C 2.34375 -8.578125 2.851562 -8.914062 3.4375 -9.15625 C 4.019531 -9.40625 4.65625 -9.53125 5.34375 -9.53125 C 6.101562 -9.53125 6.796875 -9.375 7.421875 -9.0625 C 8.054688 -8.75 8.585938 -8.3125 9.015625 -7.75 C 9.441406 -7.195312 9.722656 -6.550781 9.859375 -5.8125 L 7.84375 -5.8125 C 7.65625 -6.363281 7.335938 -6.800781 6.890625 -7.125 C 6.441406 -7.445312 5.925781 -7.609375 5.34375 -7.609375 C 4.820312 -7.609375 4.351562 -7.476562 3.9375 -7.21875 C 3.519531 -6.957031 3.1875 -6.601562 2.9375 -6.15625 C 2.695312 -5.707031 2.578125 -5.207031 2.578125 -4.65625 C 2.578125 -4.09375 2.695312 -3.59375 2.9375 -3.15625 C 3.1875 -2.71875 3.519531 -2.367188 3.9375 -2.109375 C 4.351562 -1.847656 4.820312 -1.71875 5.34375 -1.71875 C 5.957031 -1.71875 6.484375 -1.890625 6.921875 -2.234375 C 7.367188 -2.585938 7.675781 -3.0625 7.84375 -3.65625 L 9.890625 -3.65625 C 9.742188 -2.882812 9.457031 -2.207031 9.03125 -1.625 C 8.613281 -1.050781 8.085938 -0.601562 7.453125 -0.28125 C 6.816406 0.0390625 6.113281 0.203125 5.34375 0.203125 Z M 5.34375 0.203125"/></g></g></g><g fill-opacity="1" fill="#000000" data-darkreader-inline-fill="" style="--darkreader-inline-fill: var(--darkreader-text-000000, #f2f0ed);"><g transform="translate(70.62023, 10.770963)"><g><path d="M 7.5 -9.328125 L 7.5 -7.453125 L 4.90625 -7.453125 L 4.90625 0 L 2.875 0 L 2.875 -7.453125 L 0.296875 -7.453125 L 0.296875 -9.328125 Z M 7.5 -9.328125"/></g></g></g></g></g></svg>